<svg width="5" height="12" viewBox="0 0 5 12" fill="none" xmlns="http://www.w3.org/2000/svg">
<path d="M0.752 12L0.656 11.376C1.17867 11.2693 1.49333 11.1627 1.6 11.056C1.71733 10.9387 1.776 10.7413 1.776 10.464V5.872C1.776 5.648 1.69067 5.488 1.52 5.392C1.34933 5.28533 1.02933 5.184 0.56 5.088L0.656 4.576C1.79733 4.42667 2.592 4.352 3.04 4.352L3.216 4.512V10.848C3.216 10.976 3.24267 11.0613 3.296 11.104C3.36 11.136 3.44 11.1627 3.536 11.184L4.32 11.376L4.256 12H0.752ZM3.232 1.504C3.232 1.77067 3.14667 1.99467 2.976 2.176C2.816 2.35733 2.59733 2.448 2.32 2.448C2.05333 2.448 1.82933 2.368 1.648 2.208C1.47733 2.048 1.392 1.82933 1.392 1.552C1.392 1.264 1.472 1.03467 1.632 0.863999C1.80267 0.693333 2.032 0.608 2.32 0.608C2.928 0.608 3.232 0.906666 3.232 1.504Z" fill="black"/>
</svg>
