<svg width="100" height="277" viewBox="0 0 10 277" fill="none" xmlns="http://www.w3.org/2000/svg">
<path d="M10 12H8.544L2.688 3.12V12H1.232V0.832H2.688L8.544 9.696V0.832H10V12ZM5.056 36.144C4.23467 36.144 3.488 35.9573 2.816 35.584C2.15467 35.2107 1.632 34.6827 1.248 34C0.874667 33.3067 0.688 32.5067 0.688 31.6C0.688 30.704 0.88 29.9147 1.264 29.232C1.65867 28.5387 2.192 28.0107 2.864 27.648C3.536 27.2747 4.288 27.088 5.12 27.088C5.952 27.088 6.704 27.2747 7.376 27.648C8.048 28.0107 8.576 28.5333 8.96 29.216C9.35467 29.8987 9.552 30.6933 9.552 31.6C9.552 32.5067 9.34933 33.3067 8.944 34C8.54933 34.6827 8.01067 35.2107 7.328 35.584C6.64533 35.9573 5.888 36.144 5.056 36.144ZM5.056 34.864C5.57867 34.864 6.06933 34.7413 6.528 34.496C6.98667 34.2507 7.35467 33.8827 7.632 33.392C7.92 32.9013 8.064 32.304 8.064 31.6C8.064 30.896 7.92533 30.2987 7.648 29.808C7.37067 29.3173 7.008 28.9547 6.56 28.72C6.112 28.4747 5.62667 28.352 5.104 28.352C4.57067 28.352 4.08 28.4747 3.632 28.72C3.19467 28.9547 2.84267 29.3173 2.576 29.808C2.30933 30.2987 2.176 30.896 2.176 31.6C2.176 32.3147 2.304 32.9173 2.56 33.408C2.82667 33.8987 3.17867 34.2667 3.616 34.512C4.05333 34.7467 4.53333 34.864 5.056 34.864ZM3.008 52.432V57.6C3.008 58.0267 3.09867 58.3307 3.28 58.512C3.46133 58.6827 3.776 58.768 4.224 58.768H5.296V60H3.984C3.17333 60 2.56533 59.8133 2.16 59.44C1.75467 59.0667 1.552 58.4533 1.552 57.6V52.432H0.416V51.232H1.552V49.024H3.008V51.232H5.296V52.432H3.008ZM1.984 73.808C1.70667 73.808 1.472 73.712 1.28 73.52C1.088 73.328 0.992 73.0933 0.992 72.816C0.992 72.5387 1.088 72.304 1.28 72.112C1.472 71.92 1.70667 71.824 1.984 71.824C2.25067 71.824 2.47467 71.92 2.656 72.112C2.848 72.304 2.944 72.5387 2.944 72.816C2.944 73.0933 2.848 73.328 2.656 73.52C2.47467 73.712 2.25067 73.808 1.984 73.808ZM2.688 75.232V84H1.232V75.232H2.688ZM0.688 103.6C0.688 102.693 0.869333 101.904 1.232 101.232C1.59467 100.549 2.096 100.021 2.736 99.648C3.38667 99.2747 4.128 99.088 4.96 99.088C6.03733 99.088 6.92267 99.3493 7.616 99.872C8.32 100.395 8.784 101.12 9.008 102.048H7.44C7.29067 101.515 6.99733 101.093 6.56 100.784C6.13333 100.475 5.6 100.32 4.96 100.32C4.128 100.32 3.456 100.608 2.944 101.184C2.432 101.749 2.176 102.555 2.176 103.6C2.176 104.656 2.432 105.472 2.944 106.048C3.456 106.624 4.128 106.912 4.96 106.912C5.6 106.912 6.13333 106.763 6.56 106.464C6.98667 106.165 7.28 105.739 7.44 105.184H9.008C8.77333 106.08 8.304 106.8 7.6 107.344C6.896 107.877 6.016 108.144 4.96 108.144C4.128 108.144 3.38667 107.957 2.736 107.584C2.096 107.211 1.59467 106.683 1.232 106C0.869333 105.317 0.688 104.517 0.688 103.6ZM9.232 127.28C9.232 127.557 9.216 127.851 9.184 128.16H2.176C2.22933 129.024 2.52267 129.701 3.056 130.192C3.6 130.672 4.256 130.912 5.024 130.912C5.65333 130.912 6.176 130.768 6.592 130.48C7.01867 130.181 7.31733 129.787 7.488 129.296H9.056C8.82133 130.139 8.352 130.827 7.648 131.36C6.944 131.883 6.06933 132.144 5.024 132.144C4.192 132.144 3.44533 131.957 2.784 131.584C2.13333 131.211 1.62133 130.683 1.248 130C0.874667 129.307 0.688 128.507 0.688 127.6C0.688 126.693 0.869333 125.899 1.232 125.216C1.59467 124.533 2.10133 124.011 2.752 123.648C3.41333 123.275 4.17067 123.088 5.024 123.088C5.856 123.088 6.592 123.269 7.232 123.632C7.872 123.995 8.36267 124.496 8.704 125.136C9.056 125.765 9.232 126.48 9.232 127.28ZM7.728 126.976C7.728 126.421 7.60533 125.947 7.36 125.552C7.11467 125.147 6.77867 124.843 6.352 124.64C5.936 124.427 5.472 124.32 4.96 124.32C4.224 124.32 3.59467 124.555 3.072 125.024C2.56 125.493 2.26667 126.144 2.192 126.976H7.728ZM6.816 174.256C7.22133 174.32 7.58933 174.485 7.92 174.752C8.26133 175.019 8.528 175.349 8.72 175.744C8.92267 176.139 9.024 176.56 9.024 177.008C9.024 177.573 8.88 178.085 8.592 178.544C8.304 178.992 7.88267 179.349 7.328 179.616C6.784 179.872 6.13867 180 5.392 180H1.232V168.848H5.232C5.98933 168.848 6.63467 168.976 7.168 169.232C7.70133 169.477 8.10133 169.813 8.368 170.24C8.63467 170.667 8.768 171.147 8.768 171.68C8.768 172.341 8.58667 172.891 8.224 173.328C7.872 173.755 7.40267 174.064 6.816 174.256ZM2.688 173.664H5.136C5.81867 173.664 6.34667 173.504 6.72 173.184C7.09333 172.864 7.28 172.421 7.28 171.856C7.28 171.291 7.09333 170.848 6.72 170.528C6.34667 170.208 5.808 170.048 5.104 170.048H2.688V173.664ZM5.264 178.8C5.98933 178.8 6.55467 178.629 6.96 178.288C7.36533 177.947 7.568 177.472 7.568 176.864C7.568 176.245 7.35467 175.76 6.928 175.408C6.50133 175.045 5.93067 174.864 5.216 174.864H2.688V178.8H5.264ZM5.056 204.144C4.23467 204.144 3.488 203.957 2.816 203.584C2.15467 203.211 1.632 202.683 1.248 202C0.874667 201.307 0.688 200.507 0.688 199.6C0.688 198.704 0.88 197.915 1.264 197.232C1.65867 196.539 2.192 196.011 2.864 195.648C3.536 195.275 4.288 195.088 5.12 195.088C5.952 195.088 6.704 195.275 7.376 195.648C8.048 196.011 8.576 196.533 8.96 197.216C9.35467 197.899 9.552 198.693 9.552 199.6C9.552 200.507 9.34933 201.307 8.944 202C8.54933 202.683 8.01067 203.211 7.328 203.584C6.64533 203.957 5.888 204.144 5.056 204.144ZM5.056 202.864C5.57867 202.864 6.06933 202.741 6.528 202.496C6.98667 202.251 7.35467 201.883 7.632 201.392C7.92 200.901 8.064 200.304 8.064 199.6C8.064 198.896 7.92533 198.299 7.648 197.808C7.37067 197.317 7.008 196.955 6.56 196.72C6.112 196.475 5.62667 196.352 5.104 196.352C4.57067 196.352 4.08 196.475 3.632 196.72C3.19467 196.955 2.84267 197.317 2.576 197.808C2.30933 198.299 2.176 198.896 2.176 199.6C2.176 200.315 2.304 200.917 2.56 201.408C2.82667 201.899 3.17867 202.267 3.616 202.512C4.05333 202.747 4.53333 202.864 5.056 202.864ZM0.688 223.584C0.688 222.688 0.869333 221.904 1.232 221.232C1.59467 220.549 2.09067 220.021 2.72 219.648C3.36 219.275 4.06933 219.088 4.848 219.088C5.616 219.088 6.28267 219.253 6.848 219.584C7.41333 219.915 7.83467 220.331 8.112 220.832V219.232H9.584V228H8.112V226.368C7.824 226.88 7.392 227.307 6.816 227.648C6.25067 227.979 5.58933 228.144 4.832 228.144C4.05333 228.144 3.34933 227.952 2.72 227.568C2.09067 227.184 1.59467 226.645 1.232 225.952C0.869333 225.259 0.688 224.469 0.688 223.584ZM8.112 223.6C8.112 222.939 7.97867 222.363 7.712 221.872C7.44533 221.381 7.08267 221.008 6.624 220.752C6.176 220.485 5.68 220.352 5.136 220.352C4.592 220.352 4.096 220.48 3.648 220.736C3.2 220.992 2.84267 221.365 2.576 221.856C2.30933 222.347 2.176 222.923 2.176 223.584C2.176 224.256 2.30933 224.843 2.576 225.344C2.84267 225.835 3.2 226.213 3.648 226.48C4.096 226.736 4.592 226.864 5.136 226.864C5.68 226.864 6.176 226.736 6.624 226.48C7.08267 226.213 7.44533 225.835 7.712 225.344C7.97867 224.843 8.112 224.261 8.112 223.6ZM2.688 244.656C2.944 244.155 3.30667 243.765 3.776 243.488C4.256 243.211 4.83733 243.072 5.52 243.072V244.576H5.136C3.504 244.576 2.688 245.461 2.688 247.232V252H1.232V243.232H2.688V244.656ZM0.688 271.584C0.688 270.688 0.869333 269.904 1.232 269.232C1.59467 268.549 2.09067 268.021 2.72 267.648C3.36 267.275 4.07467 267.088 4.864 267.088C5.54667 267.088 6.18133 267.248 6.768 267.568C7.35467 267.877 7.80267 268.288 8.112 268.8V264.16H9.584V276H8.112V274.352C7.824 274.875 7.39733 275.307 6.832 275.648C6.26667 275.979 5.60533 276.144 4.848 276.144C4.06933 276.144 3.36 275.952 2.72 275.568C2.09067 275.184 1.59467 274.645 1.232 273.952C0.869333 273.259 0.688 272.469 0.688 271.584ZM8.112 271.6C8.112 270.939 7.97867 270.363 7.712 269.872C7.44533 269.381 7.08267 269.008 6.624 268.752C6.176 268.485 5.68 268.352 5.136 268.352C4.592 268.352 4.096 268.48 3.648 268.736C3.2 268.992 2.84267 269.365 2.576 269.856C2.30933 270.347 2.176 270.923 2.176 271.584C2.176 272.256 2.30933 272.843 2.576 273.344C2.84267 273.835 3.2 274.213 3.648 274.48C4.096 274.736 4.592 274.864 5.136 274.864C5.68 274.864 6.176 274.736 6.624 274.48C7.08267 274.213 7.44533 273.835 7.712 273.344C7.97867 272.843 8.112 272.261 8.112 271.6Z" fill="white"/>
</svg>
